<svg xmlns="http://www.w3.org/2000/svg" viewBox="0 0 1440 320">
  <defs>
          <linearGradient id="gradient">
            <stop offset="0%" stop-color="#A854F0" />
            <stop offset="100%" stop-color="#735FF1" />
          </linearGradient>
        </defs>
        <path
          fill="url(#gradient)"  fill-opacity="1" d="M0,224L12,213.3C24,203,48,181,72,154.7C96,128,120,96,144,101.3C168,107,192,149,216,170.7C240,192,264,192,288,213.3C312,235,336,277,360,250.7C384,224,408,128,432,101.3C456,75,480,117,504,154.7C528,192,552,224,576,240C600,256,624,256,648,218.7C672,181,696,107,720,90.7C744,75,768,117,792,154.7C816,192,840,224,864,208C888,192,912,128,936,90.7C960,53,984,43,1008,48C1032,53,1056,75,1080,69.3C1104,64,1128,32,1152,37.3C1176,43,1200,85,1224,122.7C1248,160,1272,192,1296,208C1320,224,1344,224,1368,213.3C1392,203,1416,181,1428,170.7L1440,160L1440,0L1428,0C1416,0,1392,0,1368,0C1344,0,1320,0,1296,0C1272,0,1248,0,1224,0C1200,0,1176,0,1152,0C1128,0,1104,0,1080,0C1056,0,1032,0,1008,0C984,0,960,0,936,0C912,0,888,0,864,0C840,0,816,0,792,0C768,0,744,0,720,0C696,0,672,0,648,0C624,0,600,0,576,0C552,0,528,0,504,0C480,0,456,0,432,0C408,0,384,0,360,0C336,0,312,0,288,0C264,0,240,0,216,0C192,0,168,0,144,0C120,0,96,0,72,0C48,0,24,0,12,0L0,0Z"></path>
</svg>