<svg xmlns="http://www.w3.org/2000/svg" viewBox="0 0 1440 320">
  <defs>
          <linearGradient id="gradient">
            <stop offset="0%" stop-color="#A854F0" />
            <stop offset="100%" stop-color="#735FF1" />
          </linearGradient>
        </defs>
        <path
          fill="url(#gradient)" fill-opacity="1" d="M0,128L16,128C32,128,64,128,96,117.3C128,107,160,85,192,101.3C224,117,256,171,288,197.3C320,224,352,224,384,213.3C416,203,448,181,480,160C512,139,544,117,576,144C608,171,640,245,672,245.3C704,245,736,171,768,122.7C800,75,832,53,864,53.3C896,53,928,75,960,112C992,149,1024,203,1056,213.3C1088,224,1120,192,1152,181.3C1184,171,1216,181,1248,197.3C1280,213,1312,235,1344,234.7C1376,235,1408,213,1424,202.7L1440,192L1440,320L1424,320C1408,320,1376,320,1344,320C1312,320,1280,320,1248,320C1216,320,1184,320,1152,320C1120,320,1088,320,1056,320C1024,320,992,320,960,320C928,320,896,320,864,320C832,320,800,320,768,320C736,320,704,320,672,320C640,320,608,320,576,320C544,320,512,320,480,320C448,320,416,320,384,320C352,320,320,320,288,320C256,320,224,320,192,320C160,320,128,320,96,320C64,320,32,320,16,320L0,320Z"></path>
</svg>